# xmcd CD database file
#
# Track frame offsets:
#	150
#	18505
#	30127
#	47242
#	64827
#	83207
#
# Disc length: 1385 seconds
#
# Revision: 6
# Processed by: cddbd v1.5.1PL0 Copyright (c) Steve Scherf et al.
# Submitted via: CDex 1.51
#
DISCID=41056706
DTITLE=ASIAN KUNG-FU GENERATION - 崩壊アンプリファー
DYEAR=1900
DGENRE=Rock
TTITLE0=遥か彼方
TTITLE1=羅針盤
TTITLE2=粉雪
TTITLE3=青の歌
TTITLE4=サンデイ
TTITLE5=12
EXTD=
EXTT0=
EXTT1=
EXTT2=
EXTT3=
EXTT4=
EXTT5=
PLAYORDER=
